# xmcd CD database file
#
# Track frame offsets:
#	150
#	45052
#	112315
#	163870
#	203170
#	250035
#	269572
#
# Disc length: 3857 seconds
#
# Revision: 0
# Processed by: cddbd v1.4PL0 Copyright (c) Steve Scherf et al.
# Submitted via: CDex 1.50beta9
#
DISCID=5e0f0f07
DTITLE=Cecil Taylor - The Complete Candid Recordings Of Cecil Taylor And Buell Neidlinger, Disc 2
DYEAR=1960
DGENRE=Jazz
TTITLE0=E.B.
TTITLE1=Lazy Afternoon
TTITLE2=Air (Take 21)
TTITLE3=Air (Take 28)
TTITLE4=Air (Take 29)
TTITLE5=Port Of Call (Take 2)
TTITLE6=Port Of Call (Take 3)
EXTD=YEAR: 1960
EXTT0=
EXTT1=
EXTT2=
EXTT3=
EXTT4=
EXTT5=
EXTT6=
PLAYORDER=
